<svg version="1.1" xmlns="http://www.w3.org/2000/svg" width="38" height="38" viewBox="0 0 38 38" enable-background="new 0 0 38 38"><path fill-rule="evenodd" fill="#d1dee5" d="m18 0c-9.925 0-18 6.317-18 14.08 0 3.631 1.729 7.03 4.888 9.653l-2.606 6.541c-.237.596-.047 1.018.088 1.217.211.313.569.5.958.5.196 0 .397-.047.602-.139l9.262-4.201c1.569.34 3.186.514 4.81.514 9.925 0 18-6.318 18-14.09-.002-7.766-8.08-14.08-18-14.08m0 26.16c-1.587 0-3.165-.182-4.69-.535l-.33-.078-8.13 3.688 2.456-6.164-.61-.461c-3.03-2.29-4.696-5.319-4.696-8.529 0-6.659 7.178-12.08 16-12.08s16 5.418 16 12.08c0 6.659-7.178 12.08-16 12.08m-4-15.16c-1.657 0-3 1.343-3 3s1.343 3 3 3h1l1 4h3l-1-4h2l4 3v-12l-4 3h-6m8 5l-2-1h-5.571c-.789 0-1.429-.447-1.429-1s.64-1 1.429-1h5.571l2-1v4"/></svg>