<svg version="1.1" xmlns="http://www.w3.org/2000/svg" width="38" height="38" viewBox="0 0 38 38" enable-background="new 0 0 38 38"><g fill-rule="evenodd"><path fill="#49a0cc" d="m18 0c-2.106 0-4.12.299-6 .822v2.073c1.855-.569 3.878-.889 6-.889 8.822 0 16 5.418 16 12.08 0 2.074-.697 4.03-1.923 5.735.517.425.973.919 1.369 1.459 1.611-2.109 2.554-4.564 2.554-7.194 0-7.766-8.07-14.08-18-14.08m5 9h-10c-.552 0-1 .448-1 1s.448 1 1 1h10c.553 0 1-.448 1-1s-.447-1-1-1m0 8h-10c-.552 0-1 .447-1 1s.448 1 1 1h10c.07 0 .132-.026.198-.04.152-.083.312-.154.47-.226.201-.183.332-.44.332-.734 0-.552-.447-1-1-1m-5 9.162c-1.587 0-3.165-.182-4.69-.535l-.33-.078-8.13 3.688 2.456-6.164-.61-.461c-3.03-2.29-4.696-5.319-4.696-8.529 0-2.115.729-4.103 2-5.833v-2.999c-2.497 2.418-4 5.489-4 8.832 0 3.63 1.729 7.03 4.888 9.653l-2.606 6.541c-.237.596-.047 1.018.088 1.217.211.313.569.5.958.5.196 0 .397-.047.602-.139l9.262-4.201c1.569.34 3.186.514 4.81.514.436 0 .864-.027 1.292-.051-.175-.638-.276-1.304-.286-1.993-.336.016-.668.038-1.01.038m5-13.162h-10c-.552 0-1 .448-1 1s.448 1 1 1h10c.553 0 1-.448 1-1s-.447-1-1-1"/><g fill="#f50"><circle cx="27" cy="27" r="1"/><path d="m27 23c-.553 0-1 .447-1 1v1h2v-1c0-.553-.447-1-1-1"/><path d="m27 20c-3.314 0-6 2.686-6 6s2.686 6 6 6c3.313 0 6-2.686 6-6s-2.687-6-6-6"/><path d="m4.958.958h6v12l-3-2-3 2v-12"/></g></g></svg>