<svg version="1.1" xmlns="http://www.w3.org/2000/svg" width="38" height="38" viewBox="0 0 38 38" enable-background="new 0 0 38 38"><path fill="#d1dee5" d="m18 .002c-9.925 0-18 6.317-18 14.08 0 3.63 1.729 7.03 4.888 9.654l-2.606 6.54c-.237.596-.047 1.019.088 1.218.211.313.569.5.958.5.196 0 .397-.047.602-.14l9.262-4.2c1.569.34 3.186.513 4.81.513 9.925 0 18-6.318 18-14.08-.002-7.766-8.08-14.08-18-14.08m0 26.16c-1.587 0-3.165-.182-4.69-.535l-.33-.077-8.13 3.688 2.456-6.164-.61-.461c-3.03-2.29-4.696-5.319-4.696-8.53 0-6.658 7.178-12.08 16-12.08 8.822 0 16 5.418 16 12.08 0 6.66-7.178 12.08-16 12.08m5-17.16h-10c-.552 0-1 .448-1 1 0 .552.448 1 1 1h10c.553 0 1-.448 1-1 0-.552-.447-1-1-1m0 4h-10c-.552 0-1 .448-1 1 0 .552.448 1 1 1h10c.553 0 1-.448 1-1 0-.552-.447-1-1-1m0 4h-10c-.552 0-1 .447-1 1 0 .553.448 1 1 1h10c.553 0 1-.447 1-1 0-.553-.447-1-1-1"/></svg>