<svg version="1.1" xmlns="http://www.w3.org/2000/svg" width="38" height="38" viewBox="0 0 38 38" enable-background="new 0 0 38 38"><g fill-rule="evenodd"><g fill="#d1dee5"><path d="m24 20v-12l-4 3h-6c-1.657 0-3 1.343-3 3s1.343 3 3 3h1l1 4h3l-1-4h2l4 3m-9.571-5c-.789 0-1.429-.447-1.429-1s.64-1 1.429-1h5.571l2-1v4l-2-1h-5.571"/><path d="m18 0c-9.925 0-18 6.317-18 14.08 0 3.631 1.729 7.03 4.888 9.653l-2.606 6.541c-.237.596-.047 1.018.088 1.217.211.313.569.5.958.5.196 0 .397-.047.602-.139l9.262-4.201c1.569.34 3.186.514 4.81.514.436 0 .864-.027 1.292-.051-.175-.638-.276-1.304-.286-1.993-.336.016-.668.038-1.01.038-1.587 0-3.165-.182-4.69-.535l-.33-.078-8.13 3.688 2.456-6.164-.61-.461c-3.03-2.29-4.696-5.319-4.696-8.529 0-6.659 7.178-12.08 16-12.08s16 5.418 16 12.08c0 2.074-.697 4.03-1.923 5.735.517.425.973.919 1.369 1.459 1.611-2.109 2.554-4.564 2.554-7.194 0-7.766-8.07-14.08-18-14.08"/></g><path fill="#f50" d="m27 20c-3.314 0-6 2.686-6 6s2.686 6 6 6c3.313 0 6-2.686 6-6s-2.687-6-6-6"/></g></svg>