<svg version="1.1" xmlns="http://www.w3.org/2000/svg" width="38" height="38" viewBox="0 0 38 38" enable-background="new 0 0 38 38"><path fill-rule="evenodd" fill="#49a0cc" d="m21 17c0 .552-.447 1-1 1h-5c-.552 0-1-.448-1-1v-5c0-.552.448-1 1-1h1v-2h-2c-1.104 0-2 .896-2 2v7c0 1.104.896 2 2 2h7c1.104 0 2-.896 2-2v-2h-2v1m-3-17c-9.925 0-18 6.317-18 14.08 0 3.631 1.729 7.03 4.888 9.654l-2.606 6.54c-.237.596-.047 1.019.088 1.218.211.313.569.5.958.5.196 0 .397-.047.602-.139l9.262-4.201c1.569.34 3.186.513 4.81.513 9.925 0 18-6.318 18-14.08-.002-7.766-8.08-14.08-18-14.08m0 26.16c-1.587 0-3.165-.181-4.69-.534l-.33-.078-8.13 3.687 2.456-6.164-.61-.461c-3.03-2.289-4.696-5.318-4.696-8.529 0-6.659 7.178-12.08 16-12.08s16 5.418 16 12.08c0 6.66-7.178 12.08-16 12.08m3-17.16h-4v2h2.561l-3.867 3.867 1.414 1.415 3.892-3.893v2.611h2v-4c0-1.105-.896-2-2-2"/></svg>