<svg version="1.1" xmlns="http://www.w3.org/2000/svg" width="38" height="38" viewBox="0 0 38 38" enable-background="new 0 0 38 38"><g fill-rule="evenodd"><path fill="#49a0cc" d="m13 15h10c.553 0 1-.447 1-1s-.447-1-1-1h-10c-.552 0-1 .447-1 1s.448 1 1 1m0 4h10c.553 0 1-.447 1-1s-.447-1-1-1h-10c-.552 0-1 .447-1 1s.448 1 1 1m0-8h10c.553 0 1-.447 1-1 0-.552-.447-1-1-1h-10c-.552 0-1 .448-1 1 0 .553.448 1 1 1m5-11c-2.106 0-4.12.299-6 .822v2.073c1.855-.569 3.878-.889 6-.889 8.822 0 16 5.418 16 12.08 0 6.66-7.178 12.08-16 12.08-1.587 0-3.165-.182-4.69-.535l-.33-.078-8.13 3.688 2.456-6.164-.61-.461c-3.03-2.291-4.696-5.32-4.696-8.53 0-2.115.729-4.103 2-5.833v-2.999c-2.497 2.417-4 5.488-4 8.832 0 3.631 1.729 7.03 4.888 9.654l-2.606 6.541c-.237.596-.047 1.018.088 1.217.211.313.569.5.958.5.196 0 .397-.047.602-.139l9.262-4.201c1.569.34 3.186.514 4.81.514 9.925 0 18-6.318 18-14.09-.002-7.767-8.08-14.08-18-14.08"/><path fill="#f50" d="m4.958.958h6v12l-3-2-3 2v-12"/></g></svg>