<svg version="1.1" xmlns="http://www.w3.org/2000/svg" width="38" height="38" viewBox="0 0 38 38" enable-background="new 0 0 38 38"><path fill="#49a0cc" d="m27 23c-.553 0-1 .447-1 1v1h2v-1c0-.553-.447-1-1-1m0 3c-.553 0-1 .447-1 1s.447 1 1 1 1-.447 1-1-.447-1-1-1m0-6c-3.314 0-6 2.688-6 6 0 3.314 2.686 6 6 6 3.313 0 6-2.686 6-6 0-3.313-2.687-6-6-6m3 8c0 .553-.447 1-1 1h-4c-.553 0-1-.447-1-1v-2c0-.553.447-1 1-1v-1c0-1.104.896-2 2-2s2 .896 2 2v1c.553 0 1 .447 1 1v2m-17-9h10c.07 0 .133-.026.199-.04.15-.083.311-.153.469-.226.201-.183.332-.441.332-.734 0-.552-.447-1-1-1h-10c-.552 0-1 .448-1 1 0 .553.448 1 1 1m5-19c-9.925 0-18 6.317-18 14.08 0 3.63 1.729 7.04 4.888 9.654l-2.606 6.541c-.237.596-.047 1.018.088 1.217.211.313.569.5.958.5.196 0 .397-.047.602-.139l9.262-4.201c1.569.34 3.186.514 4.81.514.436 0 .864-.027 1.292-.051-.175-.639-.276-1.305-.286-1.993-.334.017-.667.038-1.01.038-1.587 0-3.165-.182-4.69-.535l-.33-.078-8.132 3.687 2.456-6.164-.61-.461c-3.03-2.289-4.696-5.318-4.696-8.529 0-6.658 7.178-12.08 16-12.08 8.822 0 16 5.418 16 12.08 0 2.074-.697 4.03-1.923 5.736.517.425.973.918 1.368 1.459 1.612-2.109 2.555-4.564 2.555-7.195 0-7.765-8.07-14.08-18-14.08m-5 15h10c.553 0 1-.448 1-1 0-.552-.447-1-1-1h-10c-.552 0-1 .448-1 1 0 .552.448 1 1 1m0-4h10c.553 0 1-.448 1-1 0-.552-.447-1-1-1h-10c-.552 0-1 .448-1 1 0 .552.448 1 1 1"/></svg>