<svg version="1.1" xmlns="http://www.w3.org/2000/svg" width="38" height="38" viewBox="0 0 38 38" enable-background="new 0 0 38 38"><path fill-rule="evenodd" fill="#d1dee5" d="m13 15h10c.553 0 1-.448 1-1s-.447-1-1-1h-10c-.552 0-1 .448-1 1s.448 1 1 1m14 5c-3.314 0-6 2.686-6 6s2.686 6 6 6c3.313 0 6-2.686 6-6s-2.687-6-6-6m3 8c0 .553-.447 1-1 1h-4c-.553 0-1-.447-1-1v-2c0-.553.447-1 1-1v-1c0-1.104.896-2 2-2s2 .896 2 2v1c.553 0 1 .447 1 1v2m-3-2c-.553 0-1 .447-1 1s.447 1 1 1 1-.447 1-1-.447-1-1-1m0-3c-.553 0-1 .447-1 1v1h2v-1c0-.553-.447-1-1-1m-14-12h10c.553 0 1-.448 1-1s-.447-1-1-1h-10c-.552 0-1 .448-1 1s.448 1 1 1m5-11c-9.925 0-18 6.317-18 14.08 0 3.63 1.729 7.03 4.888 9.653l-2.606 6.541c-.237.596-.047 1.018.088 1.217.211.313.569.5.958.5.196 0 .397-.047.602-.139l9.262-4.201c1.569.34 3.186.514 4.81.514.436 0 .864-.027 1.292-.051-.175-.638-.276-1.304-.286-1.993-.336.016-.668.038-1.01.038-1.587 0-3.165-.182-4.69-.535l-.33-.078-8.13 3.688 2.456-6.164-.61-.461c-3.03-2.29-4.696-5.319-4.696-8.529 0-6.659 7.178-12.08 16-12.08s16 5.418 16 12.08c0 2.074-.697 4.03-1.923 5.735.517.425.973.919 1.369 1.459 1.611-2.109 2.554-4.564 2.554-7.194 0-7.766-8.07-14.08-18-14.08m-5 19h10c.07 0 .132-.026.198-.04.152-.083.312-.154.47-.226.201-.183.332-.44.332-.734 0-.553-.447-1-1-1h-10c-.552 0-1 .447-1 1s.448 1 1 1"/></svg>