<svg version="1.1" xmlns="http://www.w3.org/2000/svg" width="38" height="38" viewBox="0 0 38 38" enable-background="new 0 0 38 38"><g fill-rule="evenodd"><path fill="#d1dee5" d="m18 28.17c-1.624 0-3.24-.173-4.81-.513l-9.262 4.201c-.204.092-.405.139-.602.139-.389 0-.747-.188-.958-.5-.135-.199-.325-.622-.088-1.218l2.606-6.54c-3.157-2.621-4.886-6.02-4.886-9.653 0-7.766 8.07-14.08 18-14.08s18 6.317 18 14.08c0 7.766-8.07 14.08-18 14.08m0-26.16c-8.822 0-16 5.418-16 12.08 0 3.21 1.668 6.24 4.695 8.529l.61.461-2.455 6.164 8.13-3.688.33.077c1.525.354 3.104.535 4.69.535 8.822 0 16-5.419 16-12.08 0-6.657-7.178-12.08-16-12.08"/><path fill="#49a0cc" d="m23.08 14.983l-3.967 3.966-1.414-1.414 2.535-2.535h-6.236c-.552 0-1-.448-1-1s.448-1 1-1h6.236l-2.535-2.536 1.414-1.414 3.966 3.966c.513.044.919.461.919.984s-.406.94-.918.983"/></g></svg>